<svg viewBox="0 0 64 64" xmlns="http://www.w3.org/2000/svg">
  <defs>
    <linearGradient id="bg" x1="0" y1="0" x2="64" y2="64" gradientUnits="userSpaceOnUse">
      <stop offset="0%" stop-color="#5B7BFF" />
      <stop offset="55%" stop-color="#3D5AF1" />
      <stop offset="100%" stop-color="#7C3AED" />
    </linearGradient>
    <linearGradient id="accent" x1="0" y1="0" x2="0" y2="1">
      <stop offset="0%" stop-color="#FCD34D" />
      <stop offset="100%" stop-color="#F59E0B" />
    </linearGradient>
    <linearGradient id="shine" x1="0" y1="0" x2="0" y2="1">
      <stop offset="0%" stop-color="#ffffff" stop-opacity="0.30" />
      <stop offset="100%" stop-color="#ffffff" stop-opacity="0" />
    </linearGradient>
  </defs>

  <rect width="64" height="64" rx="14" fill="url(#bg)" />
  <rect width="64" height="30" rx="14" fill="url(#shine)" />

  <path d="M6 26h7" stroke="#ffffff" stroke-opacity="0.55" stroke-width="2" stroke-linecap="round" />
  <path d="M4 32h10" stroke="#ffffff" stroke-opacity="0.35" stroke-width="2" stroke-linecap="round" />
  <path d="M7 38h6" stroke="#ffffff" stroke-opacity="0.45" stroke-width="2" stroke-linecap="round" />

  <rect x="15" y="22" width="22" height="20" rx="2.2" fill="#ffffff" />

  <path d="M37 29h7.5l6 6V42H37z" fill="#ffffff" />

  <path d="M39 30.4h5.5l3.2 3.2H39z" fill="#3D5AF1" fill-opacity="0.9" />

  <rect x="15" y="34.2" width="22" height="2.2" fill="url(#accent)" />

  <path d="M19.5 26.4l2.3 4 2.3-4 2.3 4 2.3-4"
        stroke="url(#accent)" stroke-width="1.9" fill="none"
        stroke-linecap="round" stroke-linejoin="round" />

  <circle cx="21" cy="44" r="4" fill="#0B0D2E" />
  <circle cx="21" cy="44" r="1.6" fill="url(#accent)" />
  <circle cx="44" cy="44" r="4" fill="#0B0D2E" />
  <circle cx="44" cy="44" r="1.6" fill="url(#accent)" />
</svg>
